<svg width="361" height="70" viewBox="0 0 361 70" fill="none" xmlns="http://www.w3.org/2000/svg">
<path d="M72.7017 69.9565H56.5467L48.4688 55.9655L56.5467 41.9735H72.7017L80.7798 55.9655L72.7017 69.9565Z" fill="black"/>
<path d="M72.7017 41.9727H56.5467L48.4688 27.9817L56.5467 13.9907H72.7017L80.7798 27.9817L72.7017 41.9727Z" fill="black"/>
<mask id="mask0_1084_105" style="mask-type:luminance" maskUnits="userSpaceOnUse" x="16" y="41" width="33" height="29">
<path d="M40.3892 69.9565H24.2342L16.1562 55.9655L24.2342 41.9735H40.3892L48.4673 55.9655L40.3892 69.9565Z" fill="white"/>
</mask>
<g mask="url(#mask0_1084_105)">
<path d="M114.117 87.7949H-22.123V-48.4451H114.117V87.7949Z" fill="#099BBF"/>
</g>
<path d="M48.4635 27.9829H32.3075L24.2305 13.9909L32.3075 -8.96454e-05H48.4635L56.5415 13.9909L48.4635 27.9829Z" fill="black"/>
<path d="M24.234 41.9727H8.078L0 27.9817L8.078 13.9907H24.234L32.311 27.9817L24.234 41.9727Z" fill="black"/>
<path d="M96.502 42.4775C96.502 29.2285 105.411 21.3855 117.138 21.3855C128.179 21.3855 135.642 28.1625 136.402 38.2135H127.569C126.731 32.6555 122.773 29.0765 117.062 29.0765C110.208 29.0765 105.64 34.2535 105.64 42.4775C105.64 51.3105 110.665 56.4125 117.366 56.4125C122.849 56.4125 126.656 52.9105 127.569 47.1235H136.402C135.336 57.5545 128.103 64.1035 117.366 64.1035C104.193 64.1035 96.502 54.6615 96.502 42.4775Z" fill="black"/>
<path d="M138.152 49.3315V22.6035H147.137V48.9505C147.137 53.5185 150.336 56.1845 155.132 56.1845C161.3 56.1845 164.956 52.1485 165.031 46.9715V22.6035H174.016V62.9615H166.783L166.097 57.0985C163.737 61.4375 158.939 64.1035 153.305 64.1035C143.711 64.1035 138.152 58.0885 138.152 49.3315Z" fill="black"/>
<path d="M178.582 62.9614V22.6044H185.815L186.501 28.2394C189.014 24.2794 193.963 21.3854 199.978 21.3854C205.766 21.3854 210.183 24.2794 212.314 28.9244C214.599 24.6604 219.776 21.3854 226.173 21.3854C234.625 21.3854 240.031 27.4014 240.031 36.0824V62.9614H230.971V36.5394C230.971 32.0464 228.228 29.1524 223.889 29.1524C217.721 29.1524 213.838 33.1884 213.761 38.5184V62.9614H204.776V36.5394C204.776 32.0464 202.035 29.1524 197.694 29.1524C191.527 29.1524 187.644 33.1884 187.567 38.5184V62.9614H178.582Z" fill="black"/>
<path d="M275.591 42.5545C275.591 34.5595 271.099 29.0005 264.551 29.0005C257.926 29.0005 253.204 34.4835 253.204 42.3255C253.204 50.6255 257.926 56.4895 264.551 56.4895C271.099 56.4895 275.591 50.7785 275.591 42.5545ZM252.291 55.8045L251.453 62.9615H244.219V5.85249H253.204V27.8585C256.098 23.8995 260.896 21.3865 266.607 21.3865C277.267 21.3865 284.805 30.0665 284.805 42.5545C284.805 55.2715 277.267 64.1045 266.53 64.1045C260.134 64.1045 254.804 60.9065 252.291 55.8045Z" fill="black"/>
<path d="M287.238 62.9614V22.6044H294.471L295.538 30.5234C298.127 25.0404 302.847 22.1474 309.549 22.1474H311.071V30.9044H309.549C301.172 30.9044 296.223 35.3974 296.223 43.0114V62.9614H287.238Z" fill="black"/>
<path d="M339.168 38.2895C338.025 32.5025 334.447 28.9995 329.192 28.9995C323.862 28.9995 319.902 32.5025 318.532 38.2895H339.168ZM309.166 42.9345C309.166 29.6085 317.923 21.3855 329.192 21.3855C340.614 21.3855 348.23 29.3805 348.458 42.4775V44.6095H318.151C318.761 51.6915 323.177 56.4885 330.03 56.4885C334.675 56.4885 338.178 54.2045 339.548 50.1685H348.306C346.249 58.8485 339.473 64.1035 329.954 64.1035C317.618 64.1035 309.166 55.2705 309.166 42.9345Z" fill="black"/>
<mask id="mask1_1084_105" style="mask-type:luminance" maskUnits="userSpaceOnUse" x="352" y="54" width="9" height="9">
<path d="M360.335 54.7924H352.75V62.3774H360.335V54.7924Z" fill="white"/>
</mask>
<g mask="url(#mask1_1084_105)">
<path d="M386.595 87.7949H250.355V-48.4451H386.595V87.7949Z" fill="#099BBF"/>
</g>
</svg>
