<svg width="264" height="295" viewBox="0 0 264 295" fill="none" xmlns="http://www.w3.org/2000/svg">
<path d="M44.634 139.86C49.7424 139.86 54.8669 140.076 59.9521 139.742C61.6981 139.625 64.0832 138.585 64.9307 137.197C70.1549 128.64 75.0108 119.859 80.0172 111.169C81.189 109.134 81.277 107.18 80.0867 105.119C75.0594 96.4402 70.1664 87.6782 64.9585 79.1113C64.1295 77.7474 61.9528 76.4625 60.3689 76.4276C50.0527 76.1906 39.7225 76.1906 29.4063 76.4323C27.8316 76.4694 25.6688 77.7636 24.8421 79.1276C19.5323 87.885 14.4309 96.7725 9.51248 105.755C8.80621 107.043 8.85484 109.408 9.56806 110.709C14.4008 119.497 19.5578 128.103 24.4925 136.837C25.7637 139.089 27.4727 139.932 29.9481 139.893C34.8411 139.811 39.741 139.869 44.634 139.86ZM106.974 176.4C111.869 176.4 116.767 176.333 121.664 176.426C124.302 176.477 126.029 175.417 127.335 173.115C132.228 164.478 137.207 155.888 142.223 147.323C143.485 145.169 143.57 143.308 142.244 141.073C137.344 132.813 132.511 124.509 127.868 116.1C126.326 113.304 124.383 112.14 121.25 112.178C111.774 112.289 102.298 112.291 92.8251 112.173C89.8148 112.136 87.8696 113.207 86.3876 115.867C81.7216 124.262 76.9513 132.601 72.0699 140.876C70.6249 143.325 70.7778 145.339 72.1741 147.709C77.0972 156.081 81.9369 164.501 86.6794 172.978C88.0479 175.424 89.8518 176.484 92.6005 176.428C97.3893 176.335 102.183 176.402 106.974 176.4ZM106.647 248.274V248.286C111.547 248.286 116.445 248.2 121.338 248.318C124.2 248.388 126.143 247.347 127.574 244.807C132.388 236.247 137.281 227.734 142.26 219.272C143.563 217.06 143.496 215.219 142.216 213.038C137.186 204.482 132.251 195.869 127.347 187.242C126.103 185.055 124.383 184.079 121.887 184.091C112.096 184.137 102.301 184.142 92.5079 184.079C89.9028 184.063 88.0942 184.993 86.7813 187.318C81.9068 195.964 76.9606 204.571 71.9657 213.147C70.7014 215.319 70.6666 217.218 71.9657 219.42C76.9999 227.973 81.9531 236.577 86.8345 245.219C88.0225 247.324 89.5739 248.316 91.9591 248.29C96.8544 248.235 101.752 248.274 106.647 248.274ZM44.7776 212.345V212.329C49.8882 212.329 55.0105 212.536 60.1003 212.208C61.7189 212.104 63.891 210.97 64.7084 209.629C70.0275 200.876 75.1428 191.991 80.0589 183.004C80.8254 181.6 80.9064 179.077 80.1585 177.701C75.2725 168.695 70.1688 159.805 64.8728 151.036C64.0485 149.668 61.9019 148.346 60.3342 148.309C50.1198 148.065 39.8962 148.051 29.6818 148.309C28.0146 148.35 25.729 149.7 24.8537 151.139C19.5786 159.791 14.6648 168.665 9.55185 177.422C8.38476 179.421 8.48664 181.163 9.62363 183.11C14.681 191.773 19.7222 200.451 24.6661 209.181C25.993 211.525 27.8085 212.417 30.4066 212.371C35.1954 212.282 39.9865 212.345 44.7776 212.345ZM107.291 255.958C101.006 255.956 94.7193 255.888 88.4346 255.986C85.334 256.035 83.229 254.852 81.6868 252.113C76.5507 242.99 71.1552 234.017 66.1395 224.834C64.2013 221.288 61.8 219.857 57.7476 219.952C47.5286 220.192 37.2957 219.929 27.0721 220.076C23.3439 220.129 20.9426 218.812 19.097 215.489C13.3356 205.128 7.39597 194.865 1.38916 184.646C-0.437888 181.537 -0.488834 178.856 1.39148 175.701C6.91663 166.437 12.1477 156.999 17.6173 147.702C19.0206 145.316 19.1572 143.292 17.7284 140.862C12.4209 131.842 7.36818 122.668 1.97271 113.702C-0.319792 109.891 -0.521255 106.692 1.87776 102.744C7.9772 92.7086 13.7108 82.4456 19.4953 72.2197C21.0769 69.4245 23.2304 68.0025 26.4469 68.0117C38.8009 68.0443 51.1595 68.0652 63.5159 68.0001C66.9755 67.9815 68.9669 69.8125 70.5508 72.6193C75.6453 81.6416 80.925 90.5593 85.9059 99.6397C87.6149 102.749 89.743 104.052 93.2836 103.996C103.614 103.836 113.951 104.045 124.283 103.896C128.391 103.836 130.962 105.421 132.967 109.052C138.652 119.334 144.564 129.49 150.534 139.607C152.372 142.718 152.456 145.448 150.603 148.576C145.221 157.677 140.083 166.922 134.688 176.014C132.967 178.916 132.867 181.307 134.66 184.293C140.157 193.446 145.307 202.812 150.723 212.015C152.442 214.931 152.414 217.483 150.71 220.396C144.557 230.903 138.508 241.471 132.52 252.071C130.987 254.785 128.975 256.065 125.826 255.997C119.65 255.867 113.469 255.958 107.291 255.958Z" fill="black"/>
<path d="M44.7776 212.345V212.329C49.8882 212.329 55.0105 212.536 60.1003 212.208C61.7189 212.104 63.891 210.97 64.7084 209.629C70.0275 200.876 75.1428 191.991 80.0589 183.004C80.8254 181.6 80.9064 179.077 80.1585 177.701C75.2725 168.695 70.1688 159.805 64.8728 151.036C64.0485 149.668 61.9019 148.346 60.3342 148.309C50.1198 148.065 39.8962 148.051 29.6818 148.309C28.0146 148.35 25.729 149.7 24.8537 151.139C19.5786 159.791 14.6648 168.665 9.55185 177.422C8.38476 179.421 8.48664 181.163 9.62363 183.11C14.681 191.773 19.7222 200.451 24.6661 209.181C25.993 211.525 27.8085 212.417 30.4066 212.371C35.1954 212.282 39.9865 212.345 44.7776 212.345Z" fill="black"/>
<path d="M128.024 8.2756C123.009 8.2756 117.992 8.33121 112.979 8.25243C110.464 8.21072 108.779 9.19317 107.527 11.3851C102.61 19.9884 97.4995 28.4805 92.7259 37.1626C91.9597 38.5551 91.89 41.0645 92.6423 42.4385C97.4856 51.3222 102.536 60.0993 107.813 68.735C108.681 70.16 110.966 71.497 112.631 71.5387C122.868 71.7982 133.118 71.7982 143.357 71.5433C145.025 71.5039 147.316 70.1809 148.191 68.7582C153.436 60.229 158.468 51.5608 163.269 42.7745C164.068 41.3101 164.077 38.6663 163.281 37.2043C158.54 28.506 153.418 20.0185 148.51 11.4106C147.186 9.08657 145.364 8.18755 142.749 8.24085C137.843 8.34048 132.93 8.26865 128.024 8.2756ZM128.194 0.0244999C134.282 0.0244999 140.369 0.0870611 146.455 0.00132942C149.524 -0.042695 151.688 1.00925 153.26 3.78047C159.313 14.4436 165.452 25.0582 171.67 35.6263C173.434 38.6223 173.448 41.3032 171.684 44.3061C165.626 54.5985 159.664 64.9466 153.752 75.3248C151.867 78.6405 149.292 80.0562 145.403 79.9983C133.766 79.8268 122.125 79.857 110.485 79.9798C106.661 80.0191 104.177 78.7332 102.25 75.2552C96.5197 64.9026 90.5318 54.6889 84.4719 44.5216C82.626 41.426 82.4519 38.7498 84.3163 35.6055C90.5643 25.0558 96.6822 14.4274 102.77 3.78511C104.261 1.1784 106.339 0.00364623 109.294 0.0244999C115.593 0.0685243 121.892 0.0384083 128.194 0.0384083V0.0244999Z" fill="#099BBF"/>
<path d="M218.927 212.285V212.297C223.627 212.297 228.332 212.176 233.025 212.339C236.154 212.448 238.203 211.35 239.762 208.563C244.402 200.278 249.165 192.056 254.053 183.912C255.619 181.304 255.668 179.141 254.106 176.523C249.181 168.278 244.395 159.949 239.656 151.597C238.287 149.186 236.456 148.134 233.689 148.155C223.973 148.232 214.25 148.253 204.534 148.144C201.584 148.111 199.804 149.332 198.401 151.824C193.64 160.29 188.787 168.703 183.88 177.085C182.605 179.264 182.579 181.176 183.866 183.36C188.903 191.914 193.896 200.494 198.777 209.136C200.039 211.366 201.681 212.339 204.188 212.306C209.102 212.237 214.016 212.285 218.927 212.285ZM219.099 219.96C213.01 219.96 206.916 219.865 200.831 219.997C197.485 220.069 195.22 218.883 193.533 215.906C187.535 205.316 181.411 194.799 175.24 184.307C173.604 181.522 173.576 179.007 175.219 176.21C181.589 165.34 187.748 154.347 194.275 143.574C195.26 141.943 197.743 140.281 199.572 140.239C212.596 139.938 225.637 139.919 238.661 140.195C240.492 140.232 242.98 141.931 243.972 143.579C250.649 154.635 257.106 165.827 263.344 177.136C264.203 178.691 264.224 181.531 263.372 183.079C257.08 194.481 250.45 205.695 243.968 216.992C242.611 219.356 240.504 219.957 238.011 219.951C231.708 219.937 225.402 219.946 219.099 219.946V219.96Z" fill="#099BBF"/>
<path d="M218.927 212.285V212.297C223.627 212.297 228.332 212.176 233.025 212.339C236.154 212.448 238.203 211.35 239.762 208.563C244.402 200.278 249.165 192.056 254.053 183.912C255.619 181.304 255.668 179.141 254.106 176.523C249.181 168.278 244.395 159.949 239.656 151.597C238.287 149.186 236.456 148.134 233.689 148.155C223.973 148.232 214.25 148.253 204.534 148.144C201.584 148.111 199.804 149.332 198.401 151.824C193.64 160.29 188.787 168.703 183.88 177.085C182.605 179.264 182.579 181.176 183.866 183.36C188.903 191.914 193.896 200.494 198.777 209.136C200.039 211.366 201.681 212.339 204.188 212.306C209.102 212.237 214.016 212.285 218.927 212.285Z" fill="#099BBF"/>
<path d="M203.459 108.662V108.666C206.122 108.666 208.786 108.599 211.447 108.692C213.222 108.752 214.382 108.134 215.266 106.569C217.892 101.906 220.593 97.2827 223.361 92.7011C224.25 91.2348 224.28 90.0182 223.394 88.545C220.605 83.9078 217.89 79.2221 215.205 74.5225C214.428 73.1672 213.393 72.5751 211.825 72.589C206.318 72.6306 200.809 72.6422 195.302 72.5797C193.632 72.5635 192.622 73.2481 191.829 74.652C189.13 79.4141 186.38 84.146 183.6 88.8595C182.877 90.0876 182.863 91.1631 183.591 92.3912C186.446 97.2018 189.275 102.029 192.039 106.888C192.755 108.146 193.688 108.692 195.106 108.673C197.889 108.634 200.676 108.662 203.459 108.662ZM203.557 112.977C200.107 112.977 196.652 112.924 193.205 112.998C191.306 113.04 190.026 112.371 189.07 110.697C185.669 104.741 182.198 98.8254 178.704 92.9231C177.776 91.3573 177.76 89.9419 178.69 88.3692C182.301 82.2542 185.793 76.0721 189.489 70.0102C190.049 69.092 191.456 68.1577 192.491 68.1345C199.871 67.9657 207.261 67.9541 214.64 68.1091C215.678 68.1322 217.087 69.0874 217.652 70.0125C221.435 76.2316 225.092 82.5294 228.628 88.8896C229.116 89.7638 229.127 91.362 228.642 92.2316C225.078 98.645 221.321 104.954 217.649 111.31C216.88 112.64 215.685 112.977 214.274 112.973C210.699 112.966 207.128 112.97 203.557 112.97V112.977Z" fill="black"/>
<path d="M208.194 108.233C209.277 108.233 210.357 108.245 211.435 108.282C212.753 108.329 213.525 107.907 214.177 106.726C216.8 101.975 219.515 97.2326 222.243 92.6289C222.92 91.4862 222.924 90.7283 222.271 89.616C219.867 85.5379 217.354 81.143 214.123 75.3684C213.555 74.3594 212.846 73.9581 211.78 74.0004C205.413 74.0473 200.188 74.045 195.337 73.991C194.134 73.9722 193.534 74.3711 192.908 75.4951C190.226 80.3311 187.488 85.139 184.723 89.9281C184.206 90.8198 184.204 91.4463 184.712 92.3215C187.553 97.2092 190.367 102.111 193.119 107.05C193.615 107.94 194.134 108.263 195.082 108.263H195.14C197.105 108.235 199.069 108.24 201.03 108.247L204.569 108.252L205.818 108.245C206.609 108.238 207.401 108.233 208.194 108.233ZM211.622 110.631C211.534 110.631 211.444 110.629 211.353 110.626C209.518 110.563 207.675 110.579 205.835 110.591L202.297 110.603V110.596L201.023 110.593C199.076 110.586 197.124 110.582 195.172 110.61C193.399 110.565 192.018 109.845 191.1 108.202C188.355 103.277 185.546 98.3871 182.716 93.5112C181.786 91.9156 181.789 90.3552 182.723 88.7432C185.479 83.9658 188.212 79.1696 190.889 74.3453C191.911 72.5033 193.309 71.6445 195.288 71.6445H195.365C200.83 71.7079 206.296 71.6985 211.761 71.6539C213.657 71.7149 215.164 72.4728 216.138 74.2092C219.362 79.9698 221.867 84.3506 224.264 88.4147C225.358 90.2754 225.349 91.9484 224.229 93.835C221.515 98.4176 218.812 103.143 216.2 107.874C215.164 109.749 213.704 110.631 211.622 110.631ZM204.163 69.345C200.306 69.345 196.438 69.3896 192.585 69.4811C191.994 69.4952 190.94 70.1944 190.567 70.8186C188.237 74.716 185.989 78.6651 183.743 82.6142C182.449 84.8879 181.154 87.164 179.844 89.4283C179.142 90.6414 179.146 91.6363 179.856 92.8635C184.06 100.114 187.24 105.68 190.168 110.912C190.884 112.196 191.691 112.717 193.241 112.651C195.671 112.6 198.102 112.611 200.536 112.621L202.395 112.628V112.623L214.207 112.625C215.398 112.656 216.096 112.33 216.552 111.525C217.67 109.554 218.794 107.585 219.92 105.617C222.424 101.231 225.015 96.6953 227.467 92.1901C227.753 91.6668 227.746 90.4655 227.456 89.9305C223.926 83.4496 220.263 77.0179 216.569 70.8186C216.186 70.1827 215.127 69.467 214.543 69.4553C211.11 69.3826 207.64 69.345 204.163 69.345ZM193.107 115C190.845 115 189.266 114.064 188.149 112.069C185.229 106.846 182.055 101.29 177.855 94.0508C176.72 92.0892 176.715 90.1909 177.841 88.241C179.151 85.9814 180.442 83.7124 181.733 81.4433C183.991 77.4802 186.244 73.517 188.583 69.6031C189.276 68.444 190.982 67.1698 192.53 67.1346C199.891 66.9634 207.313 66.9563 214.594 67.1088C216.138 67.1417 217.85 68.4299 218.553 69.6055C222.261 75.833 225.94 82.2904 229.484 88.7971C230.168 90.0525 230.172 92.0822 229.496 93.3234C227.032 97.8498 224.436 102.395 221.925 106.792C220.801 108.756 219.679 110.722 218.564 112.693C217.41 114.73 215.542 114.972 214.228 114.972H214.202L206.688 114.969L203.554 114.977L200.524 114.967C198.114 114.955 195.701 114.946 193.29 114.998C193.23 115 193.17 115 193.107 115Z" fill="black"/>
<path d="M203.459 288.662V288.669C206.122 288.669 208.786 288.602 211.447 288.692C213.222 288.752 214.382 288.134 215.266 286.569C217.892 281.906 220.593 277.283 223.361 272.703C224.25 271.235 224.28 270.016 223.394 268.545C220.605 263.908 217.89 259.222 215.205 254.522C214.428 253.167 213.393 252.575 211.825 252.587C206.318 252.631 200.809 252.642 195.302 252.58C193.632 252.564 192.622 253.248 191.829 254.652C189.13 259.414 186.38 264.146 183.6 268.86C182.877 270.088 182.863 271.163 183.591 272.391C186.446 277.202 189.275 282.029 192.039 286.888C192.755 288.144 193.688 288.692 195.106 288.673C197.889 288.634 200.676 288.662 203.459 288.662ZM203.557 292.977C200.107 292.977 196.652 292.924 193.205 292.998C191.306 293.04 190.026 292.371 189.07 290.697C185.669 284.741 182.198 278.825 178.704 272.923C177.776 271.357 177.76 269.942 178.69 268.369C182.301 262.254 185.793 256.07 189.489 250.01C190.049 249.094 191.456 248.158 192.491 248.135C199.871 247.966 207.261 247.954 214.64 248.109C215.678 248.132 217.087 249.087 217.652 250.013C221.435 256.232 225.092 262.527 228.628 268.89C229.116 269.764 229.127 271.362 228.642 272.232C225.078 278.647 221.321 284.954 217.649 291.31C216.88 292.64 215.685 292.975 214.274 292.973C210.699 292.963 207.128 292.97 203.557 292.97V292.977Z" fill="black"/>
<path d="M208.218 288.233C209.288 288.233 210.362 288.245 211.435 288.282C212.751 288.324 213.523 287.907 214.175 286.727C216.794 281.987 219.506 277.242 222.241 272.632C222.918 271.487 222.927 270.727 222.269 269.614C219.211 264.426 216.307 259.276 214.121 255.367C213.558 254.36 212.879 253.919 211.778 253.999C205.436 254.053 200.212 254.051 195.335 253.992C194.132 253.971 193.531 254.372 192.908 255.496C190.224 260.33 187.489 265.14 184.721 269.926C184.207 270.82 184.204 271.447 184.71 272.322C187.551 277.21 190.365 282.114 193.117 287.048C193.624 287.958 194.187 288.249 195.138 288.263C197.099 288.235 199.064 288.24 201.028 288.247L204.613 288.252L205.828 288.247C206.625 288.24 207.42 288.233 208.218 288.233ZM211.623 290.631C211.535 290.631 211.444 290.629 211.354 290.629C209.516 290.563 207.68 290.575 205.846 290.593L202.295 290.605V290.596L201.023 290.593C199.078 290.589 197.124 290.584 195.17 290.61C193.365 290.568 192.016 289.845 191.098 288.202C188.356 283.277 185.546 278.387 182.714 273.514C181.787 271.916 181.789 270.356 182.721 268.741C185.477 263.967 188.21 259.17 190.887 254.346C191.909 252.504 193.307 251.646 195.286 251.646H195.363C200.228 251.702 205.438 251.707 211.759 251.653C213.69 251.685 215.16 252.476 216.136 254.21C218.319 258.108 221.214 263.246 224.262 268.415C225.358 270.276 225.349 271.949 224.227 273.835C221.506 278.43 218.803 283.153 216.198 287.874C215.162 289.749 213.702 290.631 211.623 290.631ZM204.187 249.346C200.33 249.346 196.452 249.391 192.583 249.48C191.995 249.494 190.938 250.196 190.565 250.82C188.235 254.717 185.987 258.666 183.738 262.617C182.445 264.891 181.152 267.165 179.842 269.429C179.14 270.642 179.144 271.639 179.856 272.864C184.07 280.136 187.25 285.701 190.166 290.913C190.882 292.194 191.689 292.731 193.239 292.651C195.664 292.597 198.084 292.609 200.511 292.621L202.393 292.625L206.746 292.621C209.228 292.618 211.715 292.616 214.205 292.625H214.219C215.466 292.625 216.096 292.327 216.553 291.525C217.661 289.566 218.78 287.609 219.897 285.652C222.41 281.255 225.006 276.71 227.468 272.191C227.757 271.658 227.75 270.478 227.454 269.933C223.926 263.453 220.264 257.024 216.569 250.82C216.187 250.184 215.125 249.468 214.543 249.456C211.122 249.381 207.661 249.346 204.187 249.346ZM193.105 295C190.843 295 189.264 294.064 188.147 292.067C185.24 286.867 182.065 281.313 177.853 274.051C176.72 272.09 176.715 270.192 177.842 268.242C179.149 265.984 180.44 263.715 181.731 261.444C183.986 257.481 186.244 253.518 188.58 249.604C189.274 248.445 190.979 247.173 192.528 247.133C199.92 246.965 207.339 246.955 214.592 247.11C216.136 247.143 217.848 248.433 218.551 249.607C222.266 255.836 225.94 262.294 229.482 268.8C230.168 270.051 230.173 272.08 229.496 273.324C227.025 277.862 224.422 282.419 221.902 286.825C220.788 288.78 219.67 290.734 218.562 292.693C217.408 294.733 215.533 294.972 214.219 294.972H214.2C211.715 294.962 209.231 294.967 206.746 294.967L203.552 294.977L200.499 294.967C198.088 294.953 195.687 294.944 193.29 294.998C193.228 294.998 193.168 295 193.105 295Z" fill="black"/>
</svg>
